# xmcd
#
# Track frame offsets:
#	150
#	17255
#	35260
#	50657
#	77807
#	93015
#	108085
#	130820
#	150135
#	164365
#	186147
#	205195
#	221307
#	238170
#	251497
#	266527
#	285302
#	299440
#
# Disc length: 4225 seconds
#
# Revision: 4
# Processed by: cddbd v1.5PL3 Copyright (c) Steve Scherf et al.
# Submitted via: CDex 1.50Beta5
#
DISCID=e4107f12
DTITLE=Alberta Hunter - Downhearted Blues
DYEAR=2001
DGENRE=Blues
TTITLE0=My Castle's Rockin'
TTITLE1=The Love I Have for You
TTITLE2=I Got Rhythm
TTITLE3=Downhearted Blues
TTITLE4=Time Waits for No One
TTITLE5=I'm Havin' a Good Time
TTITLE6=Two-Fisted Double-Jointed Rough and Ready Man
TTITLE7=The Darktown Strutter's Ball
TTITLE8=Sometimes I'm Happy
TTITLE9=I've Got a Mind to Ramble
TTITLE10=Old Fashioned Love
TTITLE11=You Can't Tell the Difference After Dark
TTITLE12=Remember My Name
TTITLE13=When You're Smiling (The Whole World Smiles With You)
TTITLE14=Georgia on My Mind
TTITLE15=Handy Man
TTITLE16=Never Knew My Kisses
TTITLE17=You're Welcome to Come Back Home
EXTD=
EXTT0=
EXTT1=
EXTT2=
EXTT3=
EXTT4=
EXTT5=
EXTT6=
EXTT7=
EXTT8=
EXTT9=
EXTT10=
EXTT11=
EXTT12=
EXTT13=
EXTT14=
EXTT15=
EXTT16=
EXTT17=
PLAYORDER=
